<mxfile host="app.diagrams.net" modified="2023-04-17T23:59:53.765Z" agent="Mozilla/5.0 (Windows NT 10.0; Win64; x64) AppleWebKit/537.36 (KHTML, like Gecko) Chrome/111.0.0.0 Safari/537.36" version="21.1.5" etag="TNnnKRTXzix121eoML9A" type="github">
  <diagram name="PÃ¡gina-1" id="Z4LQVi05hXII94P-TypO">
    <mxGraphModel>
      <root>
        <mxCell id="0" />
        <mxCell id="1" parent="0" />
      </root>
    </mxGraphModel>
  </diagram>
</mxfile>
